<?xml version="1.0" encoding="UTF-8" standalone="no"?>
<!-- Creator: CorelDRAW X7 -->

<svg
   xml:space="preserve"
   width="7.7096014mm"
   height="10.497467mm"
   version="1.1"
   style="clip-rule:evenodd;fill-rule:evenodd;image-rendering:optimizeQuality;shape-rendering:geometricPrecision;text-rendering:geometricPrecision"
   viewBox="0 0 770.96018 1049.7467"
   id="svg38"
   sodipodi:docname="logo.svg"
   inkscape:version="1.2.2 (732a01da63, 2022-12-09)"
   inkscape:export-filename="logo.png"
   inkscape:export-xdpi="241.96313"
   inkscape:export-ydpi="241.96313"
   xmlns:inkscape="http://www.inkscape.org/namespaces/inkscape"
   xmlns:sodipodi="http://sodipodi.sourceforge.net/DTD/sodipodi-0.dtd"
   xmlns="http://www.w3.org/2000/svg"
   xmlns:svg="http://www.w3.org/2000/svg"><sodipodi:namedview
   id="namedview40"
   pagecolor="#ffffff"
   bordercolor="#000000"
   borderopacity="0.25"
   inkscape:showpageshadow="2"
   inkscape:pageopacity="0.0"
   inkscape:pagecheckerboard="0"
   inkscape:deskcolor="#d1d1d1"
   inkscape:document-units="mm"
   showgrid="false"
   inkscape:zoom="11.079157"
   inkscape:cx="-5.099666"
   inkscape:cy="16.517502"
   inkscape:window-width="1994"
   inkscape:window-height="974"
   inkscape:window-x="0"
   inkscape:window-y="0"
   inkscape:window-maximized="0"
   inkscape:current-layer="图层_x0020_1" />
 <defs
   id="defs4">
  <style
   type="text/css"
   id="style2">
   <![CDATA[
    .str1 {stroke:#332C2B;stroke-width:20}
    .str0 {stroke:#332C2B;stroke-width:7.62}
    .fil4 {fill:#FEFEFE}
    .fil2 {fill:#332C2B}
    .fil1 {fill:black}
    .fil0 {fill:#FE0000}
    .fil3 {fill:#FEFEFE}
   ]]>
  </style>
 </defs>
 <g
   id="图层_x0020_1"
   inkscape:label="图层 1"
   inkscape:groupmode="layer"
   transform="translate(-397.42519,-88.253264)">
  <metadata
   id="CorelCorpID_0Corel-Layer" />
  <path
   class="fil0"
   d="m 921,867 c -20,-2 -38,12 -40,31 -3,20 12,38 31,40 20,2 37,-12 40,-31 2,-20 -12,-37 -31,-40 z m 112,-165 c -23,-3 -43,14 -46,35 -3,23 14,43 36,46 23,3 43,-14 46,-36 3,-23 -14,-43 -36,-45 z M 899,555 c -18,-4 -36,8 -40,26 -3,19 9,36 27,40 18,4 35,-9 39,-26 4,-19 -8,-36 -26,-40 z m -112,537 1,-635 h 244 c 22,15 55,55 71,79 34,50 52,102 62,162 4,31 5,73 0,105 -5,32 -12,60 -24,90 -57,144 -197,245 -354,245 z"
   id="path7" />
  <path
   class="fil0"
   d="m 653,867 c -19,-2 -37,12 -39,31 -3,20 12,37 31,40 19,2 37,-12 39,-31 3,-20 -11,-37 -31,-40 z M 542,702 c -22,-3 -43,13 -46,35 -2,23 14,44 37,46 22,3 43,-14 45,-36 3,-23 -14,-43 -36,-45 z M 680,555 c -18,-4 -36,8 -40,26 -4,19 8,36 26,40 18,4 36,-9 40,-26 4,-19 -8,-36 -26,-40 z m 98,537 v 46 c -84,0 -157,-28 -224,-76 -29,-20 -54,-46 -76,-74 -23,-28 -40,-61 -54,-95 -33,-82 -34,-172 -10,-256 11,-36 28,-70 49,-101 13,-21 50,-65 70,-79 h 245 z"
   id="path9" />
  <path
   class="fil1"
   d="m 904,308 c 8,-37 -48,-48 -56,-12 -7,37 48,49 56,12 z m -187,-1 c 6,-37 -50,-46 -56,-9 -2,15 8,30 23,32 16,3 31,-8 33,-23 z m 315,150 H 788 l -1,635 h -9 V 457 H 533 l -1,-31 c 1,-3 1,-8 1,-11 0,-11 3,-29 5,-40 5,-21 14,-47 25,-66 40,-69 82,-86 87,-93 -4,-19 -6,-31 -18,-49 -19,-29 -47,-47 -81,-57 -15,-4 -44,-8 -58,1 -2,9 1,10 -5,19 -3,5 -8,9 -14,10 -30,9 -48,-30 -22,-47 12,-9 24,-4 34,5 15,-10 48,-6 65,-3 36,7 69,30 91,60 9,13 21,38 22,54 15,-9 36,-17 53,-21 10,-3 20,-5 30,-6 5,-1 12,-2 17,-2 2,-1 6,0 9,0 20,-2 23,-1 43,1 10,1 22,4 32,7 17,4 25,8 40,14 4,2 9,5 13,6 2,-6 2,-15 9,-28 12,-28 25,-44 51,-62 30,-22 83,-35 118,-21 6,-3 6,-6 15,-8 8,-1 13,0 19,4 25,15 9,56 -22,48 -17,-5 -17,-21 -19,-30 -12,-9 -44,-5 -58,-1 -17,5 -32,12 -47,22 -14,9 -25,21 -34,35 -6,9 -19,39 -18,50 4,3 10,6 13,9 4,2 9,6 13,10 16,12 32,29 44,46 7,9 11,18 17,27 12,18 20,45 25,65 6,26 8,57 5,83 z"
   id="path11" />
  <path
   class="fil2 str0"
   d="m 1033,702 c 22,2 39,22 36,45 -3,22 -23,39 -46,36 -22,-3 -39,-23 -36,-46 3,-21 23,-38 46,-35 z"
   id="path13"
   style="fill:#000000;stroke:#000000" />
  <path
   class="fil2 str0"
   d="m 542,702 c 22,2 39,22 36,45 -2,22 -23,39 -45,36 -23,-2 -39,-23 -37,-46 3,-22 24,-38 46,-35 z"
   id="path15"
   style="fill:#000000;stroke:#000000" />
  <path
   class="fil2 str0"
   d="m 921,867 c 19,3 33,20 31,40 -3,19 -20,33 -40,31 -19,-2 -34,-20 -31,-40 2,-19 20,-33 40,-31 z"
   id="path17"
   style="fill:#000000;stroke:#000000" />
  <path
   class="fil2 str0"
   d="m 653,867 c 20,3 34,20 31,40 -2,19 -20,33 -39,31 -19,-3 -34,-20 -31,-40 2,-19 20,-33 39,-31 z"
   id="path19"
   style="fill:#000000;stroke:#000000" />
  <path
   class="fil2 str0"
   d="m 680,555 c 18,4 30,21 26,40 -4,17 -22,30 -40,26 -18,-4 -30,-21 -26,-40 4,-18 22,-30 40,-26 z"
   id="path21"
   style="fill:#000000;stroke:#000000" />
  <path
   class="fil2 str0"
   d="m 899,555 c 18,4 30,21 26,40 -4,17 -21,30 -39,26 -18,-4 -30,-21 -27,-40 4,-18 22,-30 40,-26 z"
   id="path23"
   style="fill:#000000;stroke:#000000" />
  <path
   class="fil3"
   d="m 904,308 c -8,37 -63,25 -56,-12 8,-36 64,-25 56,12 z"
   id="path25" />
  <path
   class="fil3"
   d="m 717,307 c -2,15 -17,26 -33,23 -15,-2 -25,-17 -23,-32 6,-37 62,-28 56,9 z"
   id="path27" />
  <circle
   class="fil2 str1"
   cx="684"
   cy="298"
   r="9"
   id="circle29"
   style="fill:#000000;stroke:#000000" />
  <circle
   class="fil2 str1"
   cx="871"
   cy="298"
   r="9"
   id="circle31"
   style="fill:#000000;stroke:#000000" />
  <circle
   class="fil4"
   cx="679"
   cy="292"
   r="6"
   id="circle33" />
  <circle
   class="fil4"
   cx="869"
   cy="291"
   r="6"
   id="circle35" />
 </g>
</svg>
